<svg width="21" height="20" viewBox="0 0 21 20" fill="none" xmlns="http://www.w3.org/2000/svg">
<path d="M10.5 0.25C8.57164 0.25 6.68657 0.821828 5.08319 1.89317C3.47982 2.96451 2.23013 4.48726 1.49218 6.26884C0.754225 8.05042 0.561142 10.0108 0.937348 11.9021C1.31355 13.7934 2.24215 15.5307 3.60571 16.8943C4.96928 18.2579 6.70656 19.1865 8.59787 19.5627C10.4892 19.9389 12.4496 19.7458 14.2312 19.0078C16.0127 18.2699 17.5355 17.0202 18.6068 15.4168C19.6782 13.8134 20.25 11.9284 20.25 10C20.2473 7.41498 19.2192 4.93661 17.3913 3.10872C15.5634 1.28084 13.085 0.25273 10.5 0.25ZM11.25 18.2153V12.25H13.5C13.6989 12.25 13.8897 12.171 14.0303 12.0303C14.171 11.8897 14.25 11.6989 14.25 11.5C14.25 11.3011 14.171 11.1103 14.0303 10.9697C13.8897 10.829 13.6989 10.75 13.5 10.75H11.25V8.5C11.25 8.10218 11.408 7.72064 11.6893 7.43934C11.9706 7.15804 12.3522 7 12.75 7H14.25C14.4489 7 14.6397 6.92098 14.7803 6.78033C14.921 6.63968 15 6.44891 15 6.25C15 6.05109 14.921 5.86032 14.7803 5.71967C14.6397 5.57902 14.4489 5.5 14.25 5.5H12.75C11.9544 5.5 11.1913 5.81607 10.6287 6.37868C10.0661 6.94129 9.75 7.70435 9.75 8.5V10.75H7.5C7.30109 10.75 7.11033 10.829 6.96967 10.9697C6.82902 11.1103 6.75 11.3011 6.75 11.5C6.75 11.6989 6.82902 11.8897 6.96967 12.0303C7.11033 12.171 7.30109 12.25 7.5 12.25H9.75V18.2153C7.63575 18.0223 5.67728 17.0217 4.28198 15.4215C2.88667 13.8214 2.16195 11.7449 2.25855 9.62409C2.35515 7.50324 3.26564 5.50127 4.80064 4.0346C6.33563 2.56793 8.37696 1.74947 10.5 1.74947C12.6231 1.74947 14.6644 2.56793 16.1994 4.0346C17.7344 5.50127 18.6449 7.50324 18.7415 9.62409C18.8381 11.7449 18.1133 13.8214 16.718 15.4215C15.3227 17.0217 13.3643 18.0223 11.25 18.2153Z" fill="white"/>
</svg>
