<svg width="25" height="24" viewBox="0 0 25 24" fill="none" xmlns="http://www.w3.org/2000/svg">
<path d="M18.937 20.937H6.06299C5.39995 20.937 4.76406 20.6736 4.29522 20.2048C3.82638 19.7359 3.56299 19.1 3.56299 18.437V5.56299C3.56299 4.89995 3.82638 4.26406 4.29522 3.79522C4.76406 3.32638 5.39995 3.06299 6.06299 3.06299H18.937C19.6 3.06299 20.2359 3.32638 20.7048 3.79522C21.1736 4.26406 21.437 4.89995 21.437 5.56299V18.437C21.437 19.1 21.1736 19.7359 20.7048 20.2048C20.2359 20.6736 19.6 20.937 18.937 20.937ZM6.06299 4.06299C5.66516 4.06299 5.28363 4.22102 5.00233 4.50233C4.72102 4.78363 4.56299 5.16516 4.56299 5.56299V18.437C4.56299 18.8348 4.72102 19.2163 5.00233 19.4976C5.28363 19.779 5.66516 19.937 6.06299 19.937H18.937C19.3348 19.937 19.7163 19.779 19.9976 19.4976C20.279 19.2163 20.437 18.8348 20.437 18.437V5.56299C20.437 5.16516 20.279 4.78363 19.9976 4.50233C19.7163 4.22102 19.3348 4.06299 18.937 4.06299H6.06299Z" fill="white" stroke="white" stroke-width="0.5"/>
<path d="M12.4999 16.5941C11.5913 16.5931 10.7033 16.3227 9.94833 15.8172C9.19332 15.3116 8.60515 14.5936 8.25816 13.7538C7.91117 12.914 7.82095 11.9902 7.99889 11.0992C8.17683 10.2081 8.61496 9.38986 9.25788 8.74778C9.9008 8.1057 10.7197 7.66864 11.6109 7.49186C12.5022 7.31508 13.4259 7.40651 14.2652 7.75459C15.1045 8.10268 15.8218 8.69179 16.3263 9.44746C16.8309 10.2031 17.1001 11.0914 17.0999 12.0001C17.0983 13.219 16.613 14.3875 15.7505 15.2489C14.888 16.1102 13.7189 16.5941 12.4999 16.5941ZM12.4999 8.40005C11.7893 8.40104 11.095 8.6126 10.5045 9.008C9.91409 9.40341 9.45409 9.96492 9.18261 10.6216C8.91114 11.2783 8.84037 12.0007 8.97924 12.6976C9.11811 13.3945 9.4604 14.0346 9.96287 14.5371C10.4653 15.0396 11.1054 15.3819 11.8023 15.5207C12.4992 15.6596 13.2217 15.5888 13.8784 15.3174C14.535 15.0459 15.0966 14.5859 15.492 13.9954C15.8874 13.405 16.0989 12.7106 16.0999 12.0001C16.0999 11.0453 15.7206 10.1296 15.0455 9.45447C14.3704 8.77934 13.4547 8.40005 12.4999 8.40005Z" fill="white" stroke="white" stroke-width="0.5"/>
<path d="M17.7 7.90488C18.2937 7.90488 18.775 7.42359 18.775 6.82988C18.775 6.23618 18.2937 5.75488 17.7 5.75488C17.1063 5.75488 16.625 6.23618 16.625 6.82988C16.625 7.42359 17.1063 7.90488 17.7 7.90488Z" fill="white"/>
</svg>
