<svg width="20" height="20" viewBox="0 0 20 20" fill="none" xmlns="http://www.w3.org/2000/svg">
<path d="M9.99976 -3.05176e-05C15.5228 -3.05176e-05 19.9998 4.47697 19.9998 9.99997C19.9998 15.523 15.5228 20 9.99976 20C8.17793 20.0028 6.3903 19.5054 4.83176 18.562L1.79976 19.454C1.62568 19.5052 1.44102 19.5086 1.26518 19.4637C1.08935 19.4189 0.928836 19.3275 0.800524 19.1992C0.672212 19.0709 0.580839 18.9104 0.536009 18.7345C0.491179 18.5587 0.494549 18.3741 0.545765 18.2L1.43776 15.168C0.494723 13.6093 -0.00265818 11.8217 -0.000235331 9.99997C-0.000235331 4.47697 4.47676 -3.05176e-05 9.99976 -3.05176e-05ZM9.99976 1.99997C8.56739 1.99971 7.16122 2.38403 5.92809 3.11278C4.69497 3.84154 3.68012 4.88801 2.98953 6.14291C2.29893 7.39781 1.95793 8.81511 2.00212 10.2468C2.04632 11.6785 2.47409 13.0721 3.24076 14.282C3.46776 14.639 3.54576 15.089 3.41776 15.522L2.97676 17.023L4.47776 16.582C4.91076 16.454 5.36076 16.532 5.71776 16.759C6.76609 17.4228 7.95445 17.8336 9.18891 17.959C10.4234 18.0844 11.6701 17.921 12.8305 17.4816C13.9909 17.0422 15.0332 16.3389 15.8749 15.4273C16.7167 14.5156 17.3349 13.4207 17.6806 12.2291C18.0264 11.0374 18.0902 9.78165 17.867 8.56107C17.6438 7.3405 17.1398 6.18857 16.3948 5.19635C15.6497 4.20412 14.6841 3.3988 13.5742 2.84405C12.4643 2.2893 11.2406 2.00032 9.99976 1.99997ZM6.49976 8.49997C6.89759 8.49997 7.27912 8.658 7.56042 8.93931C7.84173 9.22061 7.99976 9.60214 7.99976 9.99997C7.99976 10.3978 7.84173 10.7793 7.56042 11.0606C7.27912 11.3419 6.89759 11.5 6.49976 11.5C6.10194 11.5 5.72041 11.3419 5.4391 11.0606C5.1578 10.7793 4.99976 10.3978 4.99976 9.99997C4.99976 9.60214 5.1578 9.22061 5.4391 8.93931C5.72041 8.658 6.10194 8.49997 6.49976 8.49997ZM13.4998 8.49997C13.8976 8.49997 14.2791 8.658 14.5604 8.93931C14.8417 9.22061 14.9998 9.60214 14.9998 9.99997C14.9998 10.3978 14.8417 10.7793 14.5604 11.0606C14.2791 11.3419 13.8976 11.5 13.4998 11.5C13.1019 11.5 12.7204 11.3419 12.4391 11.0606C12.1578 10.7793 11.9998 10.3978 11.9998 9.99997C11.9998 9.60214 12.1578 9.22061 12.4391 8.93931C12.7204 8.658 13.1019 8.49997 13.4998 8.49997Z" fill="#1F3E97"/>
</svg>
