<svg width="17" height="16" viewBox="0 0 17 16" fill="none" xmlns="http://www.w3.org/2000/svg">
<path d="M16.4147 7.06974L13.2125 9.86437L14.1717 14.0251C14.2225 14.2426 14.208 14.4702 14.1301 14.6796C14.0522 14.8889 13.9143 15.0706 13.7337 15.202C13.553 15.3333 13.3377 15.4086 13.1145 15.4182C12.8914 15.4279 12.6704 15.3715 12.4791 15.2562L8.85015 13.0552L5.22905 15.2562C5.03776 15.3715 4.81671 15.4279 4.59357 15.4182C4.37042 15.4086 4.15508 15.3333 3.97445 15.202C3.79382 15.0706 3.65593 14.8889 3.57801 14.6796C3.5001 14.4702 3.48561 14.2426 3.53637 14.0251L4.49419 9.86863L1.29129 7.06974C1.12189 6.92363 0.999392 6.73076 0.939163 6.51532C0.878935 6.29987 0.883657 6.07144 0.952736 5.85866C1.02182 5.64589 1.15218 5.45825 1.32747 5.31927C1.50277 5.18029 1.7152 5.09616 1.93812 5.07742L6.15989 4.71176L7.80784 0.781103C7.8939 0.574854 8.03906 0.398678 8.22504 0.274759C8.41102 0.150839 8.62951 0.0847168 8.85299 0.0847168C9.07647 0.0847168 9.29496 0.150839 9.48094 0.274759C9.66692 0.398678 9.81208 0.574854 9.89814 0.781103L11.5511 4.71176L15.7714 5.07742C15.9943 5.09616 16.2068 5.18029 16.3821 5.31927C16.5574 5.45825 16.6877 5.64589 16.7568 5.85866C16.8259 6.07144 16.8306 6.29987 16.7704 6.51532C16.7101 6.73076 16.5876 6.92363 16.4182 7.06974H16.4147Z" fill="#FFB800"/>
</svg>
