<svg width="20" height="20" viewBox="0 0 20 20" fill="none" xmlns="http://www.w3.org/2000/svg">
<path d="M18.25 5H14.5C14.5 3.80653 14.0259 2.66193 13.182 1.81802C12.3381 0.974106 11.1935 0.5 10 0.5C8.80653 0.5 7.66193 0.974106 6.81802 1.81802C5.97411 2.66193 5.5 3.80653 5.5 5H1.75C1.35218 5 0.970644 5.15804 0.68934 5.43934C0.408035 5.72064 0.25 6.10218 0.25 6.5V17.75C0.25 18.1478 0.408035 18.5294 0.68934 18.8107C0.970644 19.092 1.35218 19.25 1.75 19.25H18.25C18.6478 19.25 19.0294 19.092 19.3107 18.8107C19.592 18.5294 19.75 18.1478 19.75 17.75V6.5C19.75 6.10218 19.592 5.72064 19.3107 5.43934C19.0294 5.15804 18.6478 5 18.25 5ZM10 2C10.7956 2 11.5587 2.31607 12.1213 2.87868C12.6839 3.44129 13 4.20435 13 5H7C7 4.20435 7.31607 3.44129 7.87868 2.87868C8.44129 2.31607 9.20435 2 10 2ZM18.25 17.75H1.75V6.5H5.5V8C5.5 8.19891 5.57902 8.38968 5.71967 8.53033C5.86032 8.67098 6.05109 8.75 6.25 8.75C6.44891 8.75 6.63968 8.67098 6.78033 8.53033C6.92098 8.38968 7 8.19891 7 8V6.5H13V8C13 8.19891 13.079 8.38968 13.2197 8.53033C13.3603 8.67098 13.5511 8.75 13.75 8.75C13.9489 8.75 14.1397 8.67098 14.2803 8.53033C14.421 8.38968 14.5 8.19891 14.5 8V6.5H18.25V17.75Z" fill="#1F3E97" stroke="#1F3E97" stroke-width="0.5"/>
</svg>
