<svg width="25" height="24" viewBox="0 0 25 24" fill="none" xmlns="http://www.w3.org/2000/svg">
<g clip-path="url(#clip0_56_30)">
<path fill-rule="evenodd" clip-rule="evenodd" d="M14.5 3C14.7652 3 15.0196 3.10536 15.2071 3.29289C15.3946 3.48043 15.5 3.73478 15.5 4C15.5006 4.92192 15.8193 5.81541 16.4023 6.52959C16.9853 7.24377 17.7969 7.73488 18.7 7.92C18.9599 7.97304 19.1881 8.12716 19.3344 8.34846C19.4807 8.56975 19.533 8.84009 19.48 9.1C19.427 9.35991 19.2728 9.58811 19.0515 9.73439C18.8303 9.88066 18.5599 9.93304 18.3 9.88C17.258 9.66704 16.2915 9.18036 15.5 8.47V17C15.5 17.9889 15.2068 18.9556 14.6573 19.7779C14.1079 20.6001 13.327 21.241 12.4134 21.6194C11.4998 21.9978 10.4945 22.0969 9.52455 21.9039C8.55465 21.711 7.66373 21.2348 6.96447 20.5355C6.26521 19.8363 5.789 18.9454 5.59608 17.9755C5.40315 17.0055 5.50217 16.0002 5.8806 15.0866C6.25904 14.173 6.89991 13.3921 7.72215 12.8427C8.5444 12.2932 9.5111 12 10.5 12C10.7652 12 11.0196 12.1054 11.2071 12.2929C11.3946 12.4804 11.5 12.7348 11.5 13C11.5 13.2652 11.3946 13.5196 11.2071 13.7071C11.0196 13.8946 10.7652 14 10.5 14C9.90666 14 9.32664 14.1759 8.83329 14.5056C8.33994 14.8352 7.95543 15.3038 7.72836 15.8519C7.5013 16.4001 7.44189 17.0033 7.55765 17.5853C7.6734 18.1672 7.95912 18.7018 8.37868 19.1213C8.79824 19.5409 9.33279 19.8266 9.91473 19.9424C10.4967 20.0581 11.0999 19.9987 11.6481 19.7716C12.1962 19.5446 12.6648 19.1601 12.9944 18.6667C13.3241 18.1734 13.5 17.5933 13.5 17V4C13.5 3.73478 13.6054 3.48043 13.7929 3.29289C13.9804 3.10536 14.2348 3 14.5 3Z" fill="white"/>
</g>
<defs>
<clipPath id="clip0_56_30">
<rect width="24" height="24" fill="white" transform="translate(0.5)"/>
</clipPath>
</defs>
</svg>
